<svg width="32" height="32" viewBox="0 0 32 32" fill="none" xmlns="http://www.w3.org/2000/svg">
<path d="M16 0.5C24.5604 0.5 31.5 7.43959 31.5 16C31.5 24.5604 24.5604 31.5 16 31.5C7.43959 31.5 0.5 24.5604 0.5 16C0.5 7.43959 7.43959 0.5 16 0.5Z" fill="white"/>
<path d="M16 0.5C24.5604 0.5 31.5 7.43959 31.5 16C31.5 24.5604 24.5604 31.5 16 31.5C7.43959 31.5 0.5 24.5604 0.5 16C0.5 7.43959 7.43959 0.5 16 0.5Z" stroke="#4DA534"/>
<path d="M8.24106 19.7541C8.53326 20.0522 8.99051 20.0793 9.31272 19.8354L9.40503 19.7541L16 13.0266L22.595 19.7541C22.8872 20.0522 23.3444 20.0793 23.6666 19.8354L23.7589 19.7541C24.0511 19.456 24.0777 18.9896 23.8386 18.661L23.7589 18.5668L16.582 11.2459C16.2898 10.9478 15.8325 10.9207 15.5103 11.1646L15.418 11.2459L8.24106 18.5668C7.91965 18.8947 7.91965 19.4262 8.24106 19.7541Z" fill="#4DA534"/>
</svg>
