<svg width="110" height="40" viewBox="0 0 110 40" fill="none" xmlns="http://www.w3.org/2000/svg">
<g clip-path="url(#clip0_1229_420)">
<path d="M0 0H39.9115V40H0V0Z" fill="#010204"/>
<path d="M2.92188 2.96094H36.9927V37.035H2.92188V2.96094Z" fill="white"/>
<mask id="mask0_1229_420" style="mask-type:luminance" maskUnits="userSpaceOnUse" x="6" y="4" width="28" height="26">
<path d="M6.32812 4.44531H33.5848V29.1367H6.32812V4.44531Z" fill="white"/>
</mask>
<g mask="url(#mask0_1229_420)">
<path d="M17.5058 4.88274H20.4222V7.46496H17.5058V4.88225V4.88274ZM17.5058 8.75583H20.4222V16.6422H17.5058V8.75583ZM33.5823 10.0818H27.7839V12.385H30.735V12.8037C29.6588 14.7227 26.499 14.8625 25.492 12.8037C24.9016 11.6521 24.7974 10.2566 25.3878 9.00027C26.2907 6.87188 29.6588 6.62743 30.735 8.75583H33.5823C32.9573 5.02249 28.3743 4.11484 25.5611 5.23188C22.4363 6.34793 21.2905 10.2566 22.4363 13.1874C23.3046 15.4906 25.5961 16.8166 28.0268 16.7815C30.7004 16.8161 33.4436 15.0719 33.5823 12.385V10.0818ZM13.1301 8.75583C13.096 7.53459 12.1581 7.22052 12.1581 7.22052C11.7069 7.08076 11.2207 7.08076 10.7695 7.25509C10.5697 7.34189 10.3917 7.47319 10.2487 7.63928C9.9362 7.95336 9.9362 8.54644 10.2832 8.82546C10.4453 8.98842 10.6653 9.12817 10.9427 9.24422C11.2207 9.36076 11.522 9.47681 11.8456 9.59336C12.3085 9.73311 12.7831 9.89558 13.2693 10.0822C13.7555 10.2447 14.2072 10.4541 14.6239 10.7099C15.0246 10.9733 15.3673 11.318 15.6304 11.7222C16.1862 12.6294 16.1171 14.1297 15.5262 15.0368C15.2026 15.5716 14.7163 15.9904 14.068 16.2931C12.8181 16.8862 10.6653 16.9558 9.31124 16.3978C9.31124 16.3978 6.63717 15.7 6.67222 12.385H9.51956V12.664C9.51956 14.304 10.9427 14.4087 11.3594 14.4087C11.8919 14.4087 12.3085 14.304 12.6098 14.0946C13.096 13.7459 13.1651 12.943 12.7485 12.5593C12.5864 12.3963 12.3552 12.2571 12.0539 12.1405C11.7303 12.0245 11.3711 11.8966 10.9778 11.7568C10.5087 11.6387 10.0452 11.499 9.58868 11.338C9.14916 11.1751 8.73204 10.9657 8.33877 10.7099C7.47045 10.1519 7.01925 9.34891 7.05381 8.23237C7.05381 7.48817 7.23877 6.85953 7.60965 6.34793C8.00292 5.83632 8.52372 5.44076 9.17204 5.16175C10.3528 4.67286 12.2277 4.6383 13.4431 5.12718C14.0447 5.33607 14.5431 5.662 14.9363 6.10397C14.9363 6.10397 15.8042 6.87138 15.8738 8.75583H13.1301Z" fill="#020000"/>
<path d="M32.7872 19.1211H27.4688L30.8938 28.6411H32.7872V19.1211Z" fill="#FF0000"/>
<path d="M12.4911 25.5902L9.90174 19.1211H7.11719V28.6411H9.4559V23.1892L11.544 28.6411H13.4373L15.5259 23.1892V28.6411H17.8646V19.1211H15.0805L12.4911 25.5902Z" fill="#020000"/>
<path fill-rule="evenodd" clip-rule="evenodd" d="M25.8867 19.1211L29.3391 28.6411H26.8889L26.2206 26.7483H21.7938L21.1533 28.6411H18.7031L22.1555 19.1211H25.8867ZM25.5246 24.7705L24.2718 21.1833H23.7427L22.4899 24.771L25.5246 24.7705Z" fill="#020000"/>
</g>
<path d="M9.74305 34.6894H9.25L10.6761 30.7486H11.1614L12.5875 34.6894H12.0949L10.9341 31.3724H10.9039L9.74305 34.6894ZM9.92509 33.1501H11.9129V33.5733H9.92509V33.1501ZM13.5955 34.6894L12.5339 30.7486H13.0114L13.8233 33.9585H13.8612L14.6882 30.7486H15.2187L16.0462 33.9585H16.0841L16.8955 30.7486H17.3735L16.3114 34.6894H15.8262L14.9685 31.5491H14.9384L14.0812 34.6899H13.596L13.5955 34.6894ZM17.8164 34.6894H17.3233L18.7494 30.7486H19.2347L20.6608 34.6894H20.1677L19.0074 31.3724H18.9767L17.8164 34.6894ZM17.9984 33.1501H19.9857V33.5733H17.9984V33.1501ZM21.2658 34.6894V30.7486H22.5785C22.8817 30.7486 23.1309 30.8015 23.3256 30.9067C23.5203 31.0104 23.6644 31.1536 23.7578 31.3358C23.8513 31.518 23.898 31.7249 23.898 31.9575C23.898 32.1896 23.8513 32.3956 23.7578 32.5748C23.6644 32.7546 23.5208 32.8958 23.3276 32.998C23.1338 33.0998 22.8866 33.1501 22.5858 33.1501H21.5238V32.719H22.5707C22.7781 32.719 22.945 32.6884 23.0715 32.6267C23.1991 32.5654 23.2915 32.4785 23.3485 32.3649C23.4064 32.2514 23.4356 32.1151 23.4356 31.9575C23.4356 31.7995 23.4064 31.6612 23.348 31.5437C23.2878 31.4237 23.1898 31.3276 23.0696 31.2706C22.9416 31.2049 22.7727 31.1719 22.5634 31.1719H21.736V34.6894H21.2658ZM23.0939 32.9195L24.0499 34.6894H23.5038L22.5629 32.9195H23.0939ZM25.8804 34.6894H24.6821V30.7486H25.9335C26.3102 30.7486 26.6329 30.8277 26.9006 30.9857C27.1688 31.1422 27.3742 31.3674 27.5173 31.6607C27.6599 31.9536 27.7315 32.3037 27.7315 32.7116C27.7315 33.122 27.6594 33.4756 27.5154 33.7719C27.3787 34.0587 27.159 34.2963 26.8855 34.4528C26.61 34.6109 26.2752 34.6894 25.8804 34.6894ZM25.1523 34.2662H25.8503C26.1715 34.2662 26.4373 34.2035 26.6485 34.0775C26.8597 33.9521 27.0169 33.7728 27.1206 33.5407C27.2243 33.3086 27.2764 33.0321 27.2764 32.7111C27.2764 32.3936 27.2253 32.1195 27.1226 31.8899C27.0283 31.6685 26.8677 31.4827 26.6636 31.359C26.4601 31.2346 26.2065 31.1723 25.9033 31.1723H25.1523V34.2662ZM30.6445 31.7338C30.6357 31.6416 30.6061 31.5526 30.558 31.4738C30.5099 31.3951 30.4446 31.3286 30.3671 31.2795C30.2055 31.1724 30.0069 31.1185 29.7718 31.1185C29.6 31.1185 29.4496 31.1467 29.3206 31.203C29.2023 31.2522 29.099 31.3325 29.0213 31.4356C28.9507 31.5331 28.9133 31.6513 28.9147 31.7723C28.9147 31.8775 28.939 31.9684 28.9887 32.044C29.0393 32.118 29.104 32.1803 29.1824 32.2306C29.2603 32.279 29.343 32.3195 29.4287 32.3516C29.5148 32.3827 29.5942 32.4074 29.6657 32.4267L30.06 32.5343C30.1617 32.5615 30.2741 32.5985 30.3977 32.6459C30.5228 32.6938 30.6426 32.7585 30.7565 32.8405C30.8713 32.921 30.9658 33.0252 31.0407 33.1521C31.1152 33.279 31.1527 33.4351 31.1527 33.6198C31.155 33.8245 31.0976 34.0254 30.9877 34.197C30.8791 34.3689 30.72 34.5052 30.5097 34.6069C30.3014 34.7081 30.0473 34.7585 29.7494 34.7585C29.471 34.7585 29.2301 34.7131 29.0266 34.6222C28.8365 34.5409 28.6714 34.4092 28.5487 34.241C28.4323 34.0742 28.3647 33.8776 28.3535 33.6736H28.8388C28.8514 33.8222 28.9011 33.9452 28.9867 34.043C29.0743 34.1393 29.1843 34.2109 29.3167 34.2583C29.4511 34.3047 29.5951 34.3274 29.7494 34.3274C29.929 34.3274 30.0901 34.2983 30.2327 34.2395C30.3758 34.1788 30.4888 34.0958 30.5725 33.9891C30.6558 33.8818 30.7 33.7485 30.6976 33.6119C30.6976 33.481 30.6615 33.3748 30.5895 33.2924C30.5103 33.2052 30.413 33.1369 30.3048 33.0924C30.1809 33.0389 30.0535 32.994 29.9237 32.958L29.4457 32.8193C29.1425 32.7304 28.902 32.6044 28.7254 32.44C28.5482 32.2761 28.4596 32.0612 28.4596 31.7956C28.4596 31.5748 28.5185 31.3827 28.6363 31.2183C28.755 31.0528 28.9142 30.9244 29.1138 30.8336C29.3148 30.7412 29.5392 30.6953 29.7874 30.6953C30.0376 30.6953 30.26 30.7407 30.4547 30.8316C30.6494 30.9215 30.8037 31.0444 30.9171 31.201C31.0324 31.3575 31.0933 31.5353 31.0996 31.7343L30.6445 31.7338Z" fill="#020001"/>
<path d="M47.7366 14.3638V12.7381L50.7966 10.1692C50.9996 9.99837 51.1734 9.83837 51.3174 9.68973C51.4644 9.53763 51.5769 9.38208 51.6543 9.22208C51.7341 9.06208 51.7745 8.88479 51.7745 8.68973C51.7745 8.47541 51.7287 8.29269 51.6382 8.14109C51.5514 7.99072 51.4234 7.86924 51.2697 7.79146C51.1009 7.70482 50.9137 7.66158 50.7246 7.66553C50.5192 7.66553 50.3377 7.70751 50.18 7.79146C50.0252 7.87541 49.905 7.99887 49.8193 8.16134C49.7341 8.3243 49.6913 8.52183 49.6913 8.75442H47.576C47.576 8.16924 47.7054 7.66553 47.9644 7.24282C48.2238 6.8201 48.5893 6.49467 49.0624 6.26702C49.5351 6.03986 50.0889 5.92578 50.7246 5.92578C51.3817 5.92578 51.9507 6.03294 52.4316 6.24677C52.9149 6.45813 53.2872 6.7564 53.5491 7.14109C53.8134 7.52628 53.9458 7.97714 53.9458 8.49418C53.9439 8.82284 53.8771 9.14778 53.7491 9.44973C53.6187 9.7643 53.3836 10.1124 53.0443 10.4942C52.7051 10.8764 52.2232 11.3317 51.5983 11.8601L50.8288 12.5105V12.5589H54.0339V14.3638H47.7366ZM58.6028 14.5915C57.8576 14.5885 57.2141 14.4137 56.6719 14.067C56.1297 13.7203 55.7116 13.2201 55.4181 12.5673C55.1241 11.9139 54.9786 11.1312 54.981 10.2181C54.9839 9.30208 55.1309 8.5243 55.422 7.88479C55.7155 7.24529 56.1321 6.75887 56.6719 6.42553C57.2141 6.0922 57.8576 5.92578 58.6028 5.92578C59.3479 5.92578 59.9914 6.09368 60.5336 6.42949C61.0758 6.76282 61.4939 7.24924 61.7874 7.88874C62.0814 8.52825 62.2269 9.30455 62.224 10.2181C62.224 11.1366 62.0775 11.9223 61.7835 12.5752C61.4895 13.2285 61.0719 13.7283 60.5297 14.0754C59.9899 14.4191 59.3479 14.5915 58.6028 14.5915ZM58.6028 12.7544C58.9873 12.7544 59.3022 12.551 59.548 12.1445C59.7967 11.7352 59.9193 11.0927 59.9169 10.2181C59.9169 9.64627 59.8605 9.17862 59.7485 8.81566C59.6361 8.45269 59.4813 8.18405 59.2837 8.01072C59.0975 7.839 58.8544 7.74469 58.6028 7.74652C58.2182 7.74652 57.9043 7.94405 57.6614 8.3401C57.4181 8.73566 57.2939 9.36183 57.2886 10.2181C57.2862 10.8008 57.3407 11.2799 57.4531 11.6566C57.5651 12.0305 57.7198 12.307 57.9174 12.4863C58.118 12.6645 58.3462 12.7544 58.6028 12.7544ZM63.27 14.3638V12.7381L66.3305 10.1692C66.5335 9.99837 66.7067 9.83837 66.8513 9.68973C66.9983 9.53763 67.1102 9.38208 67.1876 9.22208C67.269 9.05692 67.3103 8.87438 67.3078 8.68973C67.3078 8.47541 67.2626 8.29269 67.1716 8.14109C67.0849 7.99062 66.9569 7.86909 66.8031 7.79146C66.6345 7.70488 66.4474 7.66164 66.2585 7.66553C66.0526 7.66553 65.871 7.70751 65.7133 7.79146C65.5591 7.87483 65.4335 8.00383 65.3532 8.16134C65.2675 8.3243 65.2247 8.52183 65.2247 8.75442H63.1093C63.1093 8.16924 63.2388 7.66553 63.4982 7.24282C63.7572 6.8201 64.1232 6.49467 64.5958 6.26702C65.0684 6.03986 65.6228 5.92578 66.2585 5.92578C66.9151 5.92578 67.484 6.03294 67.9649 6.24677C68.4482 6.45813 68.8211 6.7564 69.0824 7.14109C69.3467 7.52628 69.4791 7.97714 69.4791 8.49418C69.4791 8.81418 69.4139 9.13269 69.283 9.44973C69.152 9.7643 68.917 10.1124 68.5777 10.4942C68.2385 10.8764 67.7566 11.3317 67.1316 11.8601L66.3626 12.5105V12.5589H69.5672V14.3638H63.27ZM70.3066 13.0631V11.307L73.6075 6.03986H75.1777V8.3806H74.2807L72.5017 11.2423V11.307H77.3733V13.0631H70.3066ZM74.2962 14.3638V12.5268L74.3444 11.7623V6.03986H76.4276V14.3638H74.2962ZM80.539 14.3638V6.03936H84.0965C84.7214 6.03936 85.2461 6.12479 85.6705 6.29566C86.0979 6.46652 86.4196 6.70751 86.6362 7.01911C86.8552 7.33072 86.9647 7.69813 86.9647 8.12035C86.9647 8.42652 86.8981 8.70603 86.7642 8.95788C86.6333 9.20973 86.4493 9.42109 86.2113 9.59195C85.9603 9.76564 85.6766 9.88469 85.378 9.94158V10.0231C85.7158 10.0323 86.0461 10.1257 86.3398 10.2952C86.6255 10.4579 86.8633 10.6948 87.029 10.9816C87.1998 11.272 87.285 11.6137 87.285 12.0063C87.285 12.4616 87.1677 12.8665 86.9326 13.2216C86.7005 13.5766 86.369 13.8557 85.9392 14.0586C85.5089 14.2621 84.9964 14.3638 84.4007 14.3638H80.539ZM82.7663 12.5589H83.8078C84.1816 12.5589 84.462 12.4887 84.6494 12.3475C84.8363 12.2043 84.9297 11.9929 84.9297 11.7134C84.9297 11.5184 84.8855 11.3529 84.7974 11.2176C84.7051 11.0788 84.5738 10.9713 84.4206 10.909C84.2605 10.8384 84.0668 10.8033 83.84 10.8033H82.7663V12.5589ZM82.7663 9.40479H83.6798C83.8745 9.40479 84.0468 9.37368 84.1963 9.31146C84.3462 9.24924 84.462 9.15986 84.5452 9.04331C84.6304 8.9243 84.6732 8.77911 84.6732 8.60874C84.6732 8.35097 84.5822 8.15442 84.4007 8.01911C84.2191 7.88084 83.9894 7.81171 83.712 7.81171H82.7663V9.40479ZM88.0745 14.3638V6.03936H93.9872V7.8606H90.3017V9.29121H93.683V11.112H90.3017V12.5431H93.9712V14.3638H88.0745ZM99.5145 8.64084C99.4936 8.36973 99.3933 8.15837 99.2142 8.00677C99.038 7.85516 98.7698 7.77961 98.4091 7.77961C98.1794 7.77961 97.991 7.80776 97.844 7.86455C97.7 7.91887 97.5929 7.99294 97.5238 8.08825C97.4545 8.1821 97.4167 8.29596 97.4157 8.41319C97.4104 8.51344 97.4274 8.6043 97.4678 8.68578C97.5101 8.7643 97.5773 8.8359 97.6678 8.90109C97.7589 8.96331 97.8747 9.0201 98.0163 9.07195C98.158 9.12331 98.3264 9.16924 98.5211 9.21023L99.1942 9.3564C99.6483 9.45368 100.037 9.58257 100.36 9.74257C100.683 9.90208 100.947 10.0907 101.153 10.3075C101.359 10.5213 101.51 10.7623 101.606 11.031C101.707 11.3122 101.758 11.6092 101.758 11.9085C101.755 12.4562 101.621 12.9194 101.353 13.2986C101.087 13.6784 100.705 13.9668 100.208 14.1643C99.7136 14.3623 99.1193 14.4611 98.4252 14.4611C97.7121 14.4611 97.0896 14.3544 96.5581 14.1401C96.0295 13.9263 95.6182 13.5969 95.3243 13.1524C95.0332 12.7055 94.8862 12.1337 94.8838 11.4374H96.9991C97.0122 11.6922 97.075 11.906 97.187 12.0794C97.2994 12.2527 97.4571 12.3841 97.6601 12.4739C97.8655 12.5628 98.1098 12.6078 98.3931 12.6078C98.6306 12.6078 98.8297 12.5781 98.9898 12.5189C99.1499 12.4586 99.2716 12.3762 99.3543 12.2705C99.4371 12.1648 99.4799 12.0443 99.4828 11.909C99.4818 11.7864 99.4376 11.6682 99.3582 11.5757C99.2809 11.4779 99.1528 11.3915 98.9737 11.3154C98.7951 11.2364 98.5532 11.1638 98.249 11.0957L97.4313 10.9169C96.7051 10.7574 96.1322 10.4902 95.7132 10.1164C95.2965 9.73961 95.0892 9.22603 95.0921 8.57566C95.0892 8.04726 95.2284 7.58553 95.5087 7.18998C95.7915 6.79146 96.1828 6.48134 96.6822 6.25911C97.1845 6.03689 97.7598 5.92578 98.4091 5.92578C99.0716 5.92578 99.6444 6.03837 100.128 6.26306C100.611 6.48825 100.983 6.80529 101.245 7.21418C101.51 7.6206 101.643 8.09615 101.646 8.64134H99.5145V8.64084ZM102.381 7.8606V6.03936H109.512V7.8606H107.044V14.3638H104.849V7.8601H102.381V7.8606ZM51.2624 19.1327C51.2439 18.8991 51.1573 18.7164 51.003 18.5855C50.8512 18.4547 50.6195 18.3895 50.3085 18.3895C50.1099 18.3895 49.9478 18.4142 49.8208 18.4631C49.6966 18.51 49.6042 18.5742 49.5443 18.6557C49.4846 18.7369 49.4519 18.8353 49.4508 18.9366C49.4455 19.0175 49.4611 19.0984 49.4961 19.1712C49.5326 19.2394 49.5905 19.3011 49.6689 19.3574C49.7473 19.4112 49.8475 19.4601 49.9697 19.5045C50.0919 19.549 50.2369 19.5885 50.4048 19.6241L50.986 19.75C51.3778 19.8339 51.7131 19.9455 51.9916 20.0833C52.2705 20.2216 52.4987 20.3841 52.6764 20.5707C52.8535 20.7554 52.984 20.9638 53.0667 21.1949C53.1519 21.427 53.1957 21.6789 53.1982 21.9529C53.1957 22.425 53.0794 22.825 52.8492 23.152C52.6185 23.4794 52.2889 23.7287 51.8606 23.8991C51.4343 24.07 50.9212 24.1554 50.3221 24.1554C49.7069 24.1554 49.17 24.0631 48.711 23.8784C48.255 23.6937 47.9001 23.4092 47.6466 23.026C47.3954 22.6403 47.2684 22.147 47.2664 21.546H49.0916C49.1028 21.7658 49.1574 21.9505 49.2537 22.1001C49.3506 22.2497 49.4869 22.3628 49.6621 22.4403C49.8393 22.5174 50.05 22.5559 50.2943 22.5559C50.4997 22.5559 50.6711 22.5302 50.8093 22.4789C50.948 22.4275 51.0527 22.3559 51.1242 22.265C51.1958 22.1737 51.2323 22.0695 51.2347 21.9524C51.2338 21.8468 51.1959 21.7449 51.1276 21.665C51.0609 21.5811 50.95 21.506 50.7957 21.4408C50.6414 21.3727 50.4326 21.31 50.1702 21.2512L49.465 21.0971C48.8381 20.9589 48.3435 20.7287 47.9819 20.4058C47.6222 20.0808 47.4436 19.6379 47.446 19.0769C47.4436 18.6206 47.5633 18.2226 47.8057 17.8808C48.0501 17.5371 48.3874 17.2695 48.8186 17.0774C49.2518 16.8858 49.7482 16.79 50.3085 16.79C50.8799 16.79 51.3744 16.8873 51.7915 17.0813C52.2086 17.2749 52.5299 17.5485 52.7557 17.9016C52.984 18.2522 53.0993 18.6631 53.1013 19.1327H51.2624ZM53.9292 24.071V16.8887H56.9854C57.5105 16.8887 57.9705 16.9939 58.3643 17.2048C58.7481 17.4052 59.0674 17.7129 59.2842 18.0917C59.5027 18.4729 59.6122 18.9184 59.6122 19.428C59.6122 19.9426 59.4993 20.388 59.2735 20.7643C59.0493 21.1414 58.7212 21.4438 58.3297 21.6339C57.9267 21.8374 57.4555 21.9391 56.9162 21.9391H55.091V20.4241H56.5288C56.7547 20.4241 56.9474 20.3845 57.1061 20.305C57.2677 20.2231 57.3908 20.1075 57.476 19.9574C57.5636 19.8078 57.6074 19.6315 57.6074 19.428C57.6074 19.2221 57.5636 19.0468 57.476 18.9021C57.3899 18.7538 57.2607 18.6361 57.1061 18.5653C56.9474 18.4858 56.7547 18.4458 56.5288 18.4458H55.8513V24.0715L53.9292 24.071ZM67.1759 20.4799C67.1759 21.2794 67.0226 21.9539 66.7165 22.5036C66.4098 23.0507 65.9961 23.4655 65.4753 23.748C64.9545 24.0295 64.3739 24.1692 63.7328 24.1692C63.0879 24.1692 62.5048 24.028 61.984 23.7445C61.4652 23.4596 61.0529 23.0433 60.7463 22.4962C60.4421 21.947 60.2897 21.2744 60.2897 20.4799C60.2897 19.6799 60.4421 19.0068 60.7463 18.4596C61.0529 17.91 61.4652 17.4952 61.984 17.2142C62.5048 16.9312 63.0879 16.79 63.7328 16.79C64.3739 16.79 64.9545 16.9312 65.4753 17.2147C65.9961 17.4952 66.4098 17.91 66.7165 18.4591C67.0226 19.0068 67.1759 19.6799 67.1759 20.4799ZM65.1989 20.4799C65.1989 20.0492 65.1424 19.6873 65.0295 19.3924C64.9185 19.0957 64.754 18.871 64.535 18.7189C64.3184 18.5648 64.0512 18.4878 63.7328 18.4878C63.415 18.4878 63.1463 18.5648 62.9273 18.7189C62.7107 18.871 62.5462 19.0957 62.4333 19.3924C62.3228 19.6868 62.2673 20.0492 62.2673 20.4799C62.2673 20.9095 62.3228 21.2734 62.4333 21.5702C62.5462 21.865 62.7107 22.0892 62.9273 22.2438C63.1463 22.3959 63.415 22.472 63.7328 22.472C64.0512 22.472 64.3184 22.3959 64.535 22.2438C64.754 22.0892 64.9185 21.865 65.0295 21.5702C65.1424 21.2739 65.1989 20.91 65.1989 20.4799ZM68.0652 24.071V16.8887H71.1213C71.6465 16.8887 72.1065 16.9855 72.5002 17.1801C72.8945 17.3737 73.2011 17.6532 73.4201 18.0181C73.6387 18.3826 73.7482 18.8201 73.7482 19.3297C73.7482 19.8443 73.6353 20.2779 73.4094 20.631C73.186 20.9841 72.8716 21.2507 72.4657 21.431C72.0627 21.6107 71.5915 21.7006 71.0522 21.7006H69.227V20.1855H70.6648C70.8906 20.1855 71.0834 20.1574 71.242 20.1016C71.4036 20.0428 71.5268 19.9505 71.612 19.8245C71.6996 19.6981 71.7434 19.5332 71.7434 19.3297C71.7434 19.1238 71.6996 18.9569 71.612 18.828C71.5227 18.6939 71.3929 18.593 71.242 18.5406C71.0834 18.4774 70.8906 18.4458 70.6648 18.4458H69.9873V24.0715L68.0652 24.071ZM72.2136 20.7742L73.9833 24.071H71.8957L70.1669 20.7742H72.2136ZM74.3741 18.4591V16.8887H80.5273V18.4601H78.3979V24.0715H76.5035V18.4596L74.3741 18.4591ZM81.2506 24.071V16.8887H84.3204C84.8597 16.8887 85.3123 16.9623 85.6788 17.1095C86.0478 17.2571 86.3252 17.465 86.5121 17.7337C86.7009 18.0028 86.7954 18.3199 86.7954 18.6843C86.7954 18.9485 86.7379 19.1895 86.6226 19.4068C86.5097 19.6241 86.3505 19.8068 86.1456 19.9539C85.929 20.1037 85.6843 20.2064 85.4267 20.2557V20.3258C85.718 20.3338 86.0028 20.4146 86.2561 20.5608C86.5053 20.7036 86.7034 20.9011 86.8509 21.1534C86.9983 21.4038 87.0718 21.6981 87.0718 22.0374C87.0718 22.43 86.9706 22.7796 86.7676 23.0863C86.5671 23.3924 86.2814 23.6329 85.9105 23.8087C85.5396 23.9841 85.0972 24.0715 84.5832 24.0715L81.2506 24.071ZM83.1727 22.5139H84.0716C84.3939 22.5139 84.6363 22.4532 84.7974 22.3312C84.9585 22.2078 85.0393 22.025 85.0393 21.7845C85.0393 21.6161 85.0013 21.4734 84.9254 21.3564C84.8458 21.2364 84.7325 21.1435 84.6002 21.0897C84.462 21.029 84.2951 20.9989 84.0989 20.9989H83.1727V22.5139ZM83.1727 19.7924H83.9607C84.1291 19.7924 84.2775 19.7653 84.4065 19.7115C84.536 19.6576 84.6362 19.5806 84.7073 19.4799C84.7813 19.3771 84.8183 19.2522 84.8183 19.1045C84.8183 18.8823 84.7399 18.7129 84.5832 18.5959C84.4265 18.4774 84.2284 18.4176 83.9884 18.4176H83.1727V19.7924ZM94.6112 20.4799C94.6112 21.2794 94.4579 21.9539 94.1517 22.5036C93.8451 23.0507 93.4314 23.4655 92.9106 23.748C92.3898 24.0295 91.8091 24.1692 91.1681 24.1692C90.5232 24.1692 89.9401 24.028 89.4193 23.7445C88.9005 23.4596 88.4882 23.0433 88.1816 22.4962C87.8774 21.947 87.7255 21.2744 87.7255 20.4799C87.7255 19.6799 87.8774 19.0068 88.1816 18.4596C88.4882 17.91 88.9005 17.4952 89.4193 17.2142C89.9401 16.9312 90.5232 16.79 91.1681 16.79C91.8091 16.79 92.3898 16.9312 92.9106 17.2147C93.4314 17.4952 93.8451 17.91 94.1517 18.4591C94.4579 19.0068 94.6112 19.6799 94.6112 20.4799ZM92.6341 20.4799C92.6341 20.0492 92.5777 19.6873 92.4647 19.3924C92.3543 19.0957 92.1893 18.871 91.9702 18.7189C91.7536 18.5648 91.4864 18.4878 91.1681 18.4878C90.8503 18.4878 90.5816 18.5648 90.3631 18.7189C90.1465 18.871 89.9815 19.0957 89.8685 19.3924C89.7581 19.6868 89.7026 20.0492 89.7026 20.4799C89.7026 20.9095 89.7581 21.2734 89.8685 21.5702C89.9815 21.865 90.1465 22.0892 90.3631 22.2438C90.5816 22.3959 90.8503 22.472 91.1681 22.472C91.4864 22.472 91.7536 22.3959 91.9702 22.2438C92.1893 22.0892 92.3543 21.865 92.4647 21.5702C92.5777 21.2739 92.6341 20.91 92.6341 20.4799ZM102.359 20.4799C102.359 21.2794 102.206 21.9539 101.899 22.5036C101.593 23.0507 101.179 23.4655 100.658 23.748C100.137 24.0295 99.5568 24.1692 98.9158 24.1692C98.2709 24.1692 97.6878 24.028 97.167 23.7445C96.6481 23.4596 96.2359 23.0433 95.9293 22.4962C95.6251 21.947 95.4732 21.2744 95.4732 20.4799C95.4732 19.6799 95.6251 19.0068 95.9293 18.4596C96.2359 17.91 96.6481 17.4952 97.167 17.2142C97.6878 16.9312 98.2709 16.79 98.9158 16.79C99.5568 16.79 100.137 16.9312 100.658 17.2147C101.179 17.4952 101.593 17.91 101.899 18.4591C102.206 19.0068 102.359 19.6799 102.359 20.4799ZM100.382 20.4799C100.382 20.0492 100.325 19.6873 100.212 19.3924C100.102 19.0957 99.937 18.871 99.7179 18.7189C99.5013 18.5648 99.2341 18.4878 98.9158 18.4878C98.598 18.4878 98.3293 18.5648 98.1108 18.7189C97.8942 18.871 97.7292 19.0957 97.6162 19.3924C97.5058 19.6868 97.4503 20.0492 97.4503 20.4799C97.4503 20.9095 97.5058 21.2734 97.6162 21.5702C97.7292 21.865 97.8942 22.0892 98.1108 22.2438C98.3293 22.3959 98.598 22.472 98.9158 22.472C99.2341 22.472 99.5013 22.3959 99.7179 22.2438C99.937 22.0892 100.102 21.865 100.212 21.5702C100.325 21.2739 100.382 20.91 100.382 20.4799ZM103.248 24.071V16.8887H105.17V19.7924H105.267L107.397 16.8887H109.636L107.245 20.0873L109.692 24.0715H107.397L105.806 21.3781L105.17 22.2196V24.0715L103.248 24.071ZM49.2849 33.9475H47.2109L49.5477 26.7648H52.1751L54.5118 33.9475H52.4379L50.8891 28.7426H50.8336L49.2849 33.9475ZM48.8979 31.1139H52.7971V32.5727H48.8979V31.1139ZM61.3192 26.7648V33.9475H59.7154L57.1572 30.1737H57.1158V33.9475H55.1937V26.7653H56.8252L59.3421 30.5253H59.3971V26.7653L61.3192 26.7648ZM64.9526 33.9475H62.2284V26.7653H64.9248C65.653 26.7653 66.2823 26.909 66.8124 27.1964C67.3357 27.4729 67.7645 27.9031 68.0428 28.431C68.3334 28.9668 68.4784 29.6082 68.4784 30.3569C68.4784 31.105 68.3343 31.748 68.0462 32.2858C67.768 32.8113 67.3421 33.241 66.8226 33.5203C66.295 33.8058 65.6715 33.9475 64.9526 33.9475ZM64.1504 32.2922H64.8835C65.2334 32.2922 65.5318 32.2349 65.7785 32.1203C66.0273 32.0058 66.2166 31.8083 66.3456 31.5278C66.477 31.2473 66.5427 30.8561 66.5427 30.3564C66.5427 29.8557 66.4755 29.4655 66.3422 29.1845C66.2108 28.9041 66.017 28.7065 65.7615 28.592C65.5079 28.4774 65.1969 28.4201 64.828 28.4201H64.1504V32.2922ZM77.9165 29.4581H75.9667C75.9554 29.3043 75.9181 29.1536 75.8562 29.0127C75.8005 28.882 75.7181 28.7648 75.6143 28.669C75.5083 28.5682 75.3821 28.4917 75.2444 28.4448C75.0855 28.3888 74.9181 28.3615 74.7499 28.3643C74.4272 28.3643 74.1541 28.4433 73.9307 28.6023C73.7093 28.7613 73.5413 28.9895 73.426 29.2863C73.3131 29.5836 73.2566 29.9401 73.2566 30.3564C73.2566 30.7959 73.314 31.1643 73.4294 31.4611C73.5472 31.7554 73.7166 31.9776 73.9375 32.1278C74.159 32.2744 74.4252 32.3485 74.7362 32.3485C74.9134 32.3485 75.0726 32.3263 75.2132 32.2818C75.3539 32.2349 75.4761 32.1683 75.5797 32.0818C75.6834 31.9954 75.7676 31.8912 75.8319 31.7697C75.899 31.6458 75.9438 31.5065 75.9667 31.3524L77.9165 31.3663C77.8886 31.6891 77.803 32.004 77.6639 32.2957C77.5105 32.6206 77.301 32.9152 77.0453 33.1653C76.7805 33.4295 76.452 33.6423 76.0601 33.8038C75.6683 33.9653 75.2132 34.0458 74.6949 34.0458C74.0446 34.0458 73.4615 33.9045 72.9456 33.6211C72.4316 33.3386 72.0247 32.9223 71.7254 32.3727C71.428 31.8236 71.2795 31.151 71.2795 30.3564C71.2795 29.5564 71.4314 28.8833 71.7356 28.3362C72.0398 27.7865 72.4501 27.3717 72.966 27.0907C73.4824 26.8078 74.0587 26.6665 74.6949 26.6665C75.1417 26.6665 75.553 26.7287 75.9287 26.8522C76.2894 26.9678 76.6249 27.1524 76.9173 27.3959C77.2034 27.6351 77.4367 27.9328 77.6021 28.2695C77.7749 28.6152 77.8795 29.0117 77.9165 29.4581ZM80.409 33.9475H78.3346L80.6714 26.7648H83.2987L85.6355 33.9475H83.5616L82.0128 28.7426H81.9573L80.409 33.9475ZM80.0216 31.1139H83.9212V32.5727H80.0216V31.1139ZM89.8583 29.0092C89.8398 28.7757 89.7532 28.5929 89.5989 28.4621C89.447 28.3312 89.2154 28.266 88.9043 28.266C88.7058 28.266 88.5437 28.2907 88.4166 28.3396C88.292 28.3865 88.2001 28.4507 88.1402 28.5322C88.0805 28.6134 88.0477 28.7118 88.0467 28.8132C88.0412 28.894 88.0566 28.9749 88.0915 29.0478C88.1285 29.1159 88.1864 29.1776 88.2648 29.2339C88.3432 29.2878 88.4434 29.3366 88.5651 29.3811C88.6873 29.4255 88.8328 29.465 89.0007 29.5006L89.5819 29.6265C89.9732 29.7105 90.3086 29.8221 90.5874 29.9599C90.8663 30.0981 91.0946 30.2606 91.2723 30.4473C91.4494 30.632 91.5799 30.8403 91.6626 31.0715C91.7478 31.3036 91.7916 31.5554 91.794 31.829C91.7916 32.3016 91.6753 32.7016 91.4451 33.029C91.2143 33.3559 90.8848 33.6053 90.456 33.7757C90.0297 33.9465 89.5171 34.032 88.918 34.032C88.3027 34.032 87.7654 33.9396 87.3069 33.7549C86.8508 33.5702 86.496 33.2858 86.2424 32.9026C85.9913 32.5169 85.8643 32.0236 85.8623 31.4226H87.6875C87.6987 31.6423 87.7528 31.827 87.8496 31.9766C87.9465 32.1263 88.0828 32.2394 88.2575 32.3169C88.4351 32.3939 88.6459 32.4324 88.8902 32.4324C89.0956 32.4324 89.267 32.4068 89.4052 32.3554C89.5434 32.3041 89.6486 32.2324 89.7201 32.1416C89.7912 32.0502 89.8281 31.946 89.8306 31.829C89.8297 31.7233 89.7917 31.6214 89.7235 31.5416C89.6563 31.4576 89.5459 31.3826 89.3916 31.3174C89.2373 31.2492 89.0285 31.1865 88.7656 31.1278L88.0608 30.9737C87.4339 30.8354 86.9394 30.6053 86.5778 30.2823C86.2181 29.9574 86.0395 29.5144 86.0419 28.9534C86.0395 28.4971 86.1592 28.0991 86.4011 27.7574C86.6455 27.4137 86.9832 27.146 87.414 26.9539C87.8477 26.7623 88.3441 26.6665 88.9043 26.6665C89.4758 26.6665 89.9698 26.7638 90.3869 26.9579C90.804 27.1515 91.1258 27.425 91.3516 27.7781C91.5799 28.1287 91.6947 28.5396 91.6972 29.0092H89.8583ZM94.4472 26.7648V33.9475H92.5251V26.7653L94.4472 26.7648ZM101.484 26.7648V33.9475H99.8795L97.3218 30.1737H97.2799V33.9475H95.3578V26.7653H96.9898L99.5062 30.5253H99.5617V26.7653L101.484 26.7648ZM109.251 30.3564C109.251 31.1559 109.098 31.8305 108.791 32.3801C108.485 32.9273 108.071 33.3421 107.55 33.6245C107.03 33.906 106.449 34.0458 105.808 34.0458C105.163 34.0458 104.58 33.9045 104.059 33.6211C103.541 33.3362 103.128 32.9199 102.821 32.3727C102.517 31.8236 102.365 31.151 102.365 30.3564C102.365 29.5564 102.517 28.8833 102.821 28.3362C103.128 27.7865 103.541 27.3717 104.059 27.0907C104.58 26.8078 105.163 26.6665 105.808 26.6665C106.449 26.6665 107.03 26.8078 107.55 27.0912C108.071 27.3717 108.485 27.7865 108.791 28.3357C109.098 28.8833 109.251 29.5564 109.251 30.3564ZM107.274 30.3564C107.274 29.9258 107.217 29.5638 107.104 29.269C106.994 28.9722 106.829 28.7475 106.61 28.5954C106.393 28.4413 106.126 28.3643 105.808 28.3643C105.49 28.3643 105.222 28.4413 105.003 28.5954C104.786 28.7475 104.621 28.9722 104.508 29.269C104.398 29.5633 104.342 29.9258 104.342 30.3564C104.342 30.786 104.398 31.15 104.508 31.4468C104.621 31.7416 104.786 31.9658 105.003 32.1203C105.222 32.2724 105.49 32.3485 105.808 32.3485C106.126 32.3485 106.393 32.2724 106.61 32.1203C106.829 31.9658 106.994 31.7416 107.104 31.4468C107.217 31.1505 107.274 30.7865 107.274 30.3564Z" fill="#020000"/>
</g>
<defs>
<clipPath id="clip0_1229_420">
<rect width="110" height="40" fill="white"/>
</clipPath>
</defs>
</svg>
