<svg width="100" height="40" viewBox="0 0 100 40" fill="none" xmlns="http://www.w3.org/2000/svg">
<g clip-path="url(#clip0_1229_433)">
<path d="M40.9502 0H0V40H40.9502V0Z" fill="black"/>
<path d="M37.9548 2.9633H2.99756V37.0371H37.9544V2.96289L37.9548 2.9633Z" fill="white"/>
<mask id="mask0_1229_433" style="mask-type:luminance" maskUnits="userSpaceOnUse" x="6" y="4" width="29" height="26">
<path d="M34.4598 4.44482H6.49341V29.136H34.4598V4.44482Z" fill="white"/>
</mask>
<g mask="url(#mask0_1229_433)">
<path d="M17.9647 4.88258H20.9573V7.46485H17.9647V4.88258ZM17.9647 8.75557H20.9573V16.6418H17.9647V8.75557ZM34.4585 10.0822H28.5091V12.3849H31.5374V12.8038C30.4328 14.723 27.1909 14.8624 26.1577 12.8038C25.5519 11.6521 25.4452 10.2566 26.0506 9.00052C26.9772 6.87186 30.4328 6.62733 31.5374 8.75599H34.4585C33.8174 5.02238 29.1145 4.11516 26.2286 5.23186C23.0224 6.34856 21.8469 10.2566 23.0224 13.1877C23.9133 15.4908 26.2643 16.8166 28.7585 16.7816C31.5013 16.8166 34.3162 15.0719 34.4585 12.3849V10.0826V10.0822ZM13.4755 8.75516C13.4398 7.53413 12.478 7.2199 12.478 7.2199C12.015 7.08052 11.5162 7.08052 11.0527 7.25496C10.8479 7.34142 10.6653 7.47248 10.5183 7.63846C10.1979 7.95269 10.1979 8.54568 10.554 8.82526C10.7199 8.98815 10.9461 9.12753 11.2311 9.24382C11.5368 9.36788 11.8456 9.48421 12.1573 9.59269C12.6324 9.73248 13.1191 9.89537 13.6179 10.0813C14.1166 10.2442 14.5801 10.4533 15.0075 10.7094C15.4349 10.9886 15.7793 11.3259 16.0407 11.7213C16.6104 12.6286 16.5394 14.1292 15.9336 15.0364C15.6013 15.5712 15.1025 15.9902 14.4374 16.2925C13.1552 16.8855 10.9461 16.9556 9.55645 16.3972C9.55645 16.3972 6.81329 15.6995 6.84898 12.3844H9.77014V12.6636C9.77014 14.3036 11.2307 14.4079 11.6585 14.4079C12.2046 14.4079 12.6324 14.3036 12.9411 14.0941C13.4398 13.7453 13.5112 12.9428 13.0838 12.5589C12.9174 12.396 12.6797 12.2562 12.371 12.1399C12.0386 12.0236 11.6706 11.8958 11.2664 11.7564C10.7853 11.6382 10.3099 11.4984 9.84151 11.3374C9.39221 11.1755 8.96223 10.9649 8.55935 10.7094C7.66848 10.151 7.20499 9.34856 7.24068 8.23186C7.24068 7.48753 7.43072 6.85949 7.8108 6.34733C8.21454 5.83599 8.74898 5.44011 9.41412 5.16135C10.6253 4.67269 12.5494 4.63764 13.7959 5.1263C14.4137 5.33578 14.9245 5.66155 15.3282 6.10362C15.3282 6.10362 16.2187 6.87063 16.2901 8.75516H13.4755Z" fill="black"/>
<path d="M33.6473 19.1216H28.1909L31.7046 28.6416H33.6473V19.1216Z" fill="#FF0000"/>
<path d="M12.8183 25.59L10.1619 19.1216H7.30542V28.6416H9.705V23.1892L11.8477 28.6412H13.7901L15.9328 23.1892V28.6412H18.3324V19.1216H15.4755L12.8187 25.5909L12.8183 25.59Z" fill="black"/>
<path fill-rule="evenodd" clip-rule="evenodd" d="M26.5605 19.1216L30.1028 28.6416H27.5891L26.9032 26.7488H22.3609L21.704 28.6416H19.1899L22.7323 19.1216H26.5605ZM26.1891 24.7711L24.9036 21.1834H24.3609L23.075 24.7711H26.1891Z" fill="black"/>
</g>
<path d="M7.9777 33.4416C7.65488 33.4416 7.38351 33.336 7.16442 33.1249C6.94783 32.9117 6.83911 32.6379 6.83911 32.3034C6.83911 31.9694 6.94783 31.6964 7.16442 31.4853C7.38351 31.2721 7.65488 31.1653 7.9777 31.1653C8.33206 31.1653 8.61173 31.3105 8.81753 31.6008L8.58517 31.7294C8.5188 31.6329 8.42999 31.5537 8.32625 31.4985C8.21968 31.4396 8.09965 31.4089 7.9777 31.4094C7.73455 31.4094 7.53081 31.494 7.36691 31.6634C7.2055 31.8305 7.12459 32.0441 7.12459 32.3034C7.12459 32.5632 7.2055 32.7777 7.36691 32.9467C7.53081 33.1138 7.73455 33.1975 7.9777 33.1975C8.09778 33.1987 8.21628 33.1701 8.32238 33.1142C8.42849 33.0583 8.51883 32.9769 8.58517 32.8775L8.82085 33.0061C8.60633 33.2964 8.32542 33.4416 7.9777 33.4416ZM10.6225 33.402H9.17231V31.2016H10.6225V31.4457H9.44741V32.155H10.5993V32.3991H9.44741V33.1579H10.6225V33.402ZM12.8943 33.402H12.6287L11.3375 31.647V33.402H11.0619V31.2016H11.3441L12.6188 32.9204V31.2016H12.8943V33.402ZM14.2354 33.402H13.9599V31.4457H13.2594V31.2016H14.9391V31.4457H14.2354V33.402ZM16.9121 33.402H16.5868L16.0225 32.5278H15.581V33.402H15.3055V31.2016H16.1951C16.4009 31.2016 16.5682 31.2622 16.6964 31.383C16.825 31.5039 16.8889 31.6647 16.8889 31.8647C16.8889 32.054 16.8337 32.2045 16.7229 32.3166C16.615 32.4275 16.4695 32.4946 16.3146 32.5047L16.9121 33.402ZM16.1619 32.2869C16.2926 32.2869 16.3984 32.2474 16.4806 32.1682C16.5212 32.1289 16.5531 32.0816 16.5742 32.0293C16.5954 31.977 16.6053 31.921 16.6034 31.8647C16.6055 31.8089 16.5957 31.7532 16.5745 31.7015C16.5533 31.6497 16.5213 31.603 16.4806 31.5645C16.3989 31.4853 16.2926 31.4457 16.1619 31.4457H15.581V32.2869H16.1619ZM19.2204 33.402H18.9051L18.7092 32.9138H17.6072L17.4113 33.402H17.096L17.9856 31.2016H18.3275L19.2204 33.402ZM18.6262 32.6696L18.1582 31.4853L17.6868 32.6696H18.6262ZM20.8146 33.402H19.5101V31.2016H19.7856V33.1579H20.8146V33.402ZM23.5084 33.402H22.0582V31.2016H23.5088V31.4457H22.3337V32.155H23.4856V32.3991H22.3337V33.1579H23.5088L23.5084 33.402ZM25.5213 33.2041C25.3686 33.3624 25.1449 33.4416 24.8507 33.4416C24.5561 33.4416 24.3321 33.3624 24.1769 33.2041C24.0242 33.0432 23.9478 32.8247 23.9478 32.5476V31.2016H24.2233V32.541C24.2233 32.7455 24.2773 32.9059 24.386 33.0226C24.4943 33.1393 24.6495 33.1975 24.8507 33.1975C25.052 33.1975 25.2072 33.1393 25.3155 33.0226C25.4238 32.9059 25.4781 32.7455 25.4781 32.541V31.2016H25.7536V32.5443C25.7536 32.8234 25.676 33.0432 25.5213 33.2041ZM27.8789 33.402H27.5536L26.9893 32.5278H26.5478V33.402H26.2723V31.2016H27.1619C27.3677 31.2016 27.5345 31.2622 27.6632 31.383C27.7914 31.5039 27.8557 31.6647 27.8557 31.8647C27.8557 32.054 27.8001 32.2045 27.6897 32.3166C27.5819 32.4275 27.4363 32.4946 27.2814 32.5047L27.8789 33.402ZM27.1287 32.2869C27.259 32.2869 27.3653 32.2474 27.4474 32.1682C27.488 32.1289 27.5198 32.0816 27.541 32.0293C27.5621 31.977 27.5721 31.921 27.5702 31.8647C27.5723 31.8089 27.5624 31.7532 27.5413 31.7015C27.5201 31.6497 27.4881 31.603 27.4474 31.5645C27.3653 31.4853 27.259 31.4457 27.1287 31.4457H26.5478V32.2869H27.1287ZM29.3009 33.4416C28.9756 33.4416 28.7113 33.334 28.5076 33.1183C28.3043 32.9026 28.2022 32.6313 28.2022 32.3034C28.2022 31.9756 28.3038 31.7043 28.5076 31.4886C28.7109 31.2729 28.9756 31.1653 29.3009 31.1653C29.6242 31.1653 29.8872 31.2729 30.091 31.4886C30.2968 31.7043 30.3997 31.9756 30.3997 32.3034C30.3997 32.6313 30.2968 32.9026 30.091 33.1183C29.8877 33.334 29.6238 33.4416 29.3009 33.4416ZM29.3009 33.1975C29.5445 33.1975 29.7404 33.1138 29.8885 32.9467C30.0387 32.7777 30.1142 32.5632 30.1142 32.3034C30.1142 32.0416 30.0391 31.8272 29.8885 31.6601C29.7399 31.4931 29.5441 31.4094 29.3009 31.4094C29.0553 31.4094 28.8582 31.4931 28.7101 31.6601C28.5615 31.8272 28.4877 32.0416 28.4877 32.3034C28.4877 32.5632 28.5615 32.7777 28.7101 32.9467C28.8582 33.1138 29.0553 33.1975 29.3009 33.1975ZM31.1055 33.402H30.83V31.2016H31.7196C31.9341 31.2016 32.1034 31.2655 32.2275 31.3929C32.3516 31.5208 32.4134 31.6775 32.4134 31.8647C32.4134 32.0515 32.3503 32.209 32.2242 32.3364C32.1001 32.4643 31.9321 32.5278 31.7196 32.5278H31.1055V33.402ZM31.6864 32.2837C31.8171 32.2837 31.9229 32.2453 32.0051 32.1682C32.0457 32.1289 32.0775 32.0816 32.0987 32.0293C32.1198 31.977 32.1298 31.921 32.1279 31.8647C32.13 31.8089 32.1201 31.7532 32.0989 31.7015C32.0778 31.6497 32.0458 31.603 32.0051 31.5645C31.9233 31.4853 31.8171 31.4457 31.6864 31.4457H31.1055V32.2837H31.6864ZM34.2287 33.402H32.7781V31.2016H34.2287V31.4457H33.0541V32.155H34.2059V32.3991H33.0541V33.1579H34.2292L34.2287 33.402ZM79.9399 19.4531H76.0561V12.8519H79.8204C80.4379 12.8519 80.9159 13.0201 81.2545 13.3566C81.5931 13.6865 81.7624 14.0791 81.7624 14.5344C81.7624 14.9302 81.6528 15.2634 81.4337 15.534C81.2213 15.8045 80.9524 15.976 80.6271 16.0486C80.9856 16.1014 81.2843 16.2828 81.5233 16.5929C81.769 16.8964 81.8918 17.2527 81.8918 17.6618C81.8918 18.1698 81.7225 18.5954 81.3839 18.9385C81.0453 19.2816 80.564 19.4531 79.9399 19.4531ZM79.4321 15.3855C79.6047 15.3855 79.7441 15.336 79.8503 15.2371C79.9632 15.1315 80.0196 14.9962 80.0196 14.8313C80.022 14.7585 80.008 14.6861 79.9787 14.6193C79.9495 14.5526 79.9056 14.4931 79.8503 14.4453C79.7441 14.3397 79.6047 14.287 79.4321 14.287H77.769V15.3855H79.4321ZM79.4918 18.0181C79.6976 18.0181 79.857 17.9653 79.9698 17.8597C80.0893 17.7476 80.1491 17.6024 80.1491 17.4243C80.1491 17.2527 80.0893 17.1109 79.9698 16.9987C79.857 16.8865 79.6976 16.8305 79.4918 16.8305H77.769V18.0181H79.4918ZM87.6943 19.4531H82.8246V12.8519H87.6943V14.3364H84.5375V15.3657H87.6246V16.8502H84.5375V17.9686H87.6943V19.4531ZM91.1586 19.5719C89.9304 19.5719 88.9478 19.2222 88.2109 18.5228L89.1171 17.2461C89.7014 17.8267 90.4084 18.1171 91.2383 18.1171C91.5304 18.1171 91.7594 18.0676 91.9254 17.9686C92.098 17.863 92.1843 17.7311 92.1843 17.5727C92.1843 17.4342 92.0914 17.322 91.9055 17.2362C91.7196 17.1439 91.4872 17.0779 91.2084 17.0383C90.9296 16.9921 90.6275 16.9228 90.3022 16.8305C89.9932 16.7376 89.6905 16.6252 89.396 16.494C89.1171 16.362 88.8848 16.1542 88.6989 15.8705C88.513 15.5867 88.42 15.247 88.42 14.8511C88.42 14.2705 88.6557 13.7756 89.1271 13.3665C89.6051 12.9575 90.2524 12.7529 91.069 12.7529C92.1511 12.7529 93.0507 13.0597 93.7677 13.6733L92.8316 14.8907C92.274 14.4354 91.6267 14.2078 90.8897 14.2078C90.4117 14.2078 90.1727 14.3661 90.1727 14.6828C90.1727 14.8082 90.2657 14.9171 90.4516 15.0094C90.6375 15.0952 90.8698 15.1612 91.1487 15.2074C91.4275 15.2535 91.7262 15.3261 92.0449 15.4251C92.3702 15.5175 92.6723 15.6296 92.9511 15.7616C93.23 15.8935 93.4623 16.0981 93.6482 16.3752C93.8341 16.6523 93.9271 16.9822 93.9271 17.3649C93.9271 18.0379 93.6848 18.5756 93.2001 18.9781C92.7155 19.374 92.035 19.5719 91.1586 19.5719ZM97.7595 19.4531H96.0466V14.3364H94.1843V12.8519H99.6117V14.3364H97.7595V19.4531ZM50.664 27.2469C49.7287 27.2469 48.9806 26.9806 48.4192 26.4478L49.1096 25.4754C49.5545 25.9179 50.0931 26.1389 50.725 26.1389C50.9474 26.1389 51.1217 26.101 51.2482 26.0259C51.3798 25.9455 51.4453 25.8449 51.4453 25.7245C51.4453 25.6189 51.3744 25.5335 51.2329 25.468C51.0914 25.3979 50.9146 25.3476 50.7022 25.3175C50.4694 25.2776 50.239 25.2247 50.0121 25.1591C49.7767 25.0883 49.5461 25.0026 49.3217 24.9026C49.1096 24.8024 48.9325 24.6441 48.791 24.428C48.6495 24.2119 48.5785 23.9529 48.5785 23.6515C48.5785 23.2094 48.7582 22.8325 49.1171 22.5212C49.481 22.2094 49.974 22.054 50.596 22.054C51.42 22.054 52.1051 22.2874 52.6511 22.755L51.9383 23.6816C51.5138 23.3352 51.0209 23.162 50.4594 23.162C50.0955 23.162 49.9134 23.2824 49.9134 23.5237C49.9134 23.6189 49.9843 23.7018 50.1258 23.7723C50.2673 23.8375 50.4441 23.8878 50.6565 23.9228C50.869 23.9583 51.0964 24.0135 51.3391 24.0886C51.5868 24.1591 51.8171 24.2445 52.0292 24.3451C52.246 24.4494 52.4298 24.611 52.5603 24.8123C52.7018 25.0234 52.7727 25.2746 52.7727 25.5661C52.7727 26.0787 52.5881 26.4882 52.2188 26.7946C51.8499 27.096 51.3316 27.2469 50.664 27.2469ZM54.6872 27.1562H53.3827V22.1294H55.9155C56.4615 22.1294 56.8914 22.2902 57.2051 22.6119C57.5184 22.9282 57.6752 23.3253 57.6752 23.8024C57.6752 24.2746 57.5184 24.6717 57.2051 24.9933C56.8914 25.3096 56.4615 25.468 55.9155 25.468H54.6872V27.1562ZM55.7412 24.3377C55.9184 24.3377 56.0624 24.2898 56.1736 24.1942C56.2897 24.0989 56.3478 23.9682 56.3478 23.8024C56.3478 23.6317 56.2897 23.4985 56.1736 23.4028C56.0624 23.3076 55.9184 23.2597 55.7412 23.2597H54.6872V24.3377H55.7412ZM62.6395 26.5154C62.1287 27.0032 61.4839 27.2469 60.7055 27.2469C59.9271 27.2469 59.2798 27.0032 58.764 26.5158C58.2532 26.0284 57.998 25.4053 57.998 24.6465C57.998 23.8878 58.2532 23.2651 58.764 22.7773C59.2798 22.2898 59.9271 22.0461 60.7055 22.0461C61.4839 22.0461 62.1287 22.2898 62.6395 22.7773C63.1499 23.2647 63.4055 23.8878 63.4055 24.6465C63.4055 25.4053 63.1499 26.0276 62.6395 26.5154ZM60.7055 26.101C61.115 26.101 61.4462 25.9628 61.6989 25.6865C61.952 25.4102 62.0781 25.0639 62.0781 24.6465C62.0781 24.2296 61.952 23.8828 61.6989 23.6065C61.4462 23.3302 61.115 23.1917 60.7055 23.1917C60.291 23.1917 59.9574 23.3298 59.7043 23.6065C59.4516 23.8828 59.3254 24.2292 59.3254 24.6465C59.3254 25.0634 59.4516 25.4102 59.7043 25.6865C59.9574 25.9628 60.291 26.101 60.7055 26.101ZM68.3777 27.1562H66.8835L66.0341 25.468H65.3669V27.1562H64.0624V22.1294H66.5955C67.1416 22.1294 67.5711 22.2874 67.8848 22.6037C68.198 22.9204 68.3549 23.3199 68.3549 23.8024C68.3549 24.2045 68.2536 24.5335 68.0516 24.7896C67.8545 25.0412 67.6192 25.2144 67.3462 25.3096L68.3777 27.1562ZM66.398 24.3377C66.5752 24.3377 66.7242 24.2898 66.8458 24.1942C66.9669 24.0989 67.0275 23.9657 67.0275 23.795C67.0275 23.6288 66.9669 23.4981 66.8458 23.4032C66.7242 23.3076 66.5752 23.2597 66.398 23.2597H65.3669V24.3377H66.398ZM71.4366 27.1562H70.1321V23.2593H68.7142V22.1294H72.8474V23.2593H71.4366V27.1562ZM75.2897 27.2469C74.3545 27.2469 73.6059 26.9806 73.0449 26.4478L73.735 25.4754C74.1798 25.9179 74.7184 26.1389 75.3503 26.1389C75.5727 26.1389 75.7474 26.101 75.8736 26.0259C76.0051 25.9455 76.0711 25.8449 76.0711 25.7245C76.0711 25.6189 76.0001 25.5335 75.8586 25.468C75.7171 25.3979 75.5399 25.3476 75.3275 25.3175C75.0947 25.2776 74.8643 25.2247 74.6375 25.1591C74.4022 25.0883 74.1717 25.0026 73.9474 24.9026C73.735 24.8024 73.5582 24.6441 73.4167 24.428C73.2748 24.2119 73.2043 23.9529 73.2043 23.6515C73.2043 23.2094 73.3835 22.8325 73.7424 22.5212C74.1068 22.2094 74.5997 22.054 75.2217 22.054C76.0458 22.054 76.7308 22.2874 77.2769 22.755L76.564 23.6816C76.1391 23.3352 75.6462 23.162 75.0852 23.162C74.7209 23.162 74.5391 23.2824 74.5391 23.5237C74.5391 23.6189 74.6096 23.7018 74.7511 23.7723C74.8926 23.8375 75.0698 23.8878 75.2823 23.9228C75.4943 23.9583 75.7221 24.0135 75.9648 24.0886C76.2126 24.1591 76.4424 24.2445 76.6549 24.3451C76.8673 24.4457 77.0441 24.6012 77.1856 24.8123C77.3271 25.0234 77.398 25.2746 77.398 25.5661C77.398 26.0787 77.2134 26.4882 76.8445 26.7946C76.4752 27.096 75.957 27.2469 75.2897 27.2469ZM80.9661 27.1562H78.008V22.1294H80.8748C81.3449 22.1294 81.7092 22.2573 81.9669 22.5133C82.225 22.7649 82.3536 23.0639 82.3536 23.4102C82.3536 23.7121 82.2702 23.9657 82.1034 24.1715C81.9416 24.3777 81.737 24.5084 81.4893 24.5632C81.7624 24.6037 81.9897 24.7418 82.1719 24.9781C82.3586 25.209 82.4524 25.4808 82.4524 25.7921C82.4524 26.1789 82.3233 26.503 82.0657 26.7645C81.8076 27.0255 81.4412 27.1562 80.9661 27.1562ZM80.5789 24.0585C80.7105 24.0585 80.8167 24.021 80.8976 23.9455C80.94 23.906 80.9735 23.858 80.9957 23.8047C81.018 23.7514 81.0285 23.6939 81.0267 23.6362C81.0284 23.5808 81.0177 23.5258 80.9954 23.475C80.9731 23.4242 80.9397 23.379 80.8976 23.3426C80.8167 23.2622 80.7105 23.2218 80.5789 23.2218H79.3126V24.0589L80.5789 24.0585ZM80.6246 26.0634C80.7814 26.0634 80.9026 26.0234 80.9885 25.943C81.0798 25.8577 81.125 25.7467 81.125 25.6111C81.125 25.4808 81.0798 25.3727 80.9885 25.2874C80.9026 25.2016 80.7814 25.1591 80.6246 25.1591H79.3126V26.0634H80.6246ZM87.5462 26.5154C87.0358 27.0032 86.391 27.2469 85.6126 27.2469C84.8337 27.2469 84.1868 27.0032 83.6711 26.5158C83.1603 26.0284 82.9051 25.4053 82.9051 24.6465C82.9051 23.8878 83.1603 23.2651 83.6711 22.7773C84.1868 22.2898 84.8337 22.0461 85.6126 22.0461C86.391 22.0461 87.0358 22.2898 87.5462 22.7773C88.057 23.2647 88.3121 23.8878 88.3121 24.6465C88.3121 25.4053 88.057 26.0276 87.5462 26.5154ZM85.6126 26.101C86.0221 26.101 86.3532 25.9628 86.6059 25.6865C86.8586 25.4102 86.9852 25.0639 86.9852 24.6465C86.9852 24.2296 86.8586 23.8828 86.6059 23.6065C86.3532 23.3302 86.0221 23.1917 85.6126 23.1917C85.198 23.1917 84.864 23.3298 84.6113 23.6065C84.3586 23.8828 84.2321 24.2292 84.2321 24.6465C84.2321 25.0634 84.3586 25.4102 84.6113 25.6865C84.864 25.9628 85.198 26.101 85.6126 26.101ZM93.3528 26.5154C92.842 27.0032 92.1976 27.2469 91.4188 27.2469C90.6404 27.2469 89.9931 27.0032 89.4773 26.5158C88.9669 26.0284 88.7113 25.4053 88.7113 24.6465C88.7113 23.8878 88.9669 23.2651 89.4773 22.7773C89.9931 22.2898 90.6404 22.0461 91.4188 22.0461C92.1976 22.0461 92.842 22.2898 93.3528 22.7773C93.8636 23.2647 94.1188 23.8878 94.1188 24.6465C94.1188 25.4053 93.8636 26.0276 93.3528 26.5154ZM91.4188 26.101C91.8283 26.101 92.1594 25.9628 92.4126 25.6865C92.6653 25.4102 92.7914 25.0639 92.7914 24.6465C92.7914 24.2296 92.6653 23.8828 92.4126 23.6065C92.1594 23.3302 91.8283 23.1917 91.4188 23.1917C91.0043 23.1917 90.6706 23.3298 90.418 23.6065C90.1648 23.8828 90.0387 24.2292 90.0387 24.6465C90.0387 25.0634 90.1648 25.4102 90.418 25.6865C90.6706 25.9628 91.0043 26.101 91.4188 26.101ZM99.3487 27.1562H97.7487L96.4213 25.2647L96.0802 25.6865V27.1562H94.7756V22.1294H96.0802V24.1942L97.635 22.129H99.2429L97.2785 24.4808L99.3487 27.1562Z" fill="black"/>
<path d="M53.9007 19.4878H48.7638V18.2045C50.2173 17.183 51.141 16.4935 51.5335 16.136C51.9331 15.7785 52.1327 15.4432 52.1327 15.1307C52.1327 14.9203 52.0443 14.757 51.8675 14.6424C51.6974 14.5212 51.4845 14.4601 51.2293 14.4601C50.5742 14.4601 49.9916 14.6935 49.4808 15.1595L48.5476 14.0676C48.8807 13.7106 49.2951 13.4381 49.7559 13.2729C50.2166 13.0962 50.7061 13.0053 51.1999 13.0049C51.9791 13.0049 52.614 13.1995 53.1053 13.5888C53.6028 13.9785 53.8518 14.4919 53.8518 15.1307C53.8518 15.6094 53.6684 16.0754 53.3015 16.5286C52.9352 16.9822 52.336 17.4894 51.504 18.0515H53.9007V19.4878ZM58.6003 19.3249C58.2401 19.5104 57.8277 19.6028 57.3625 19.6028C56.8978 19.6028 56.482 19.51 56.1152 19.3249C55.7655 19.1485 55.4626 18.8927 55.231 18.5781C55.0057 18.2596 54.8332 17.9072 54.7202 17.5344C54.6073 17.1322 54.5511 16.7164 54.5534 16.2989C54.5534 15.7117 54.6518 15.1752 54.848 14.6902C55.0421 14.208 55.3689 13.7898 55.7912 13.4836C56.2298 13.1645 56.7534 13.0049 57.3625 13.0049C57.9717 13.0049 58.492 13.1645 58.9244 13.4832C59.363 13.8028 59.6808 14.2049 59.8771 14.6902C60.0737 15.1752 60.1717 15.7117 60.1717 16.2989C60.1717 16.7331 60.1128 17.1447 59.9949 17.5344C59.8877 17.9094 59.7148 18.2627 59.4841 18.5781C59.2617 18.8911 58.9671 19.1397 58.6003 19.3249ZM56.2625 16.2989C56.2625 17.5311 56.6294 18.1472 57.3625 18.1472C58.0962 18.1472 58.4625 17.5311 58.4625 16.2989C58.4625 15.0733 58.0962 14.4601 57.3625 14.4601C56.6294 14.4601 56.2625 15.0729 56.2625 16.2989ZM65.997 19.4878H60.8596V18.2045C62.3136 17.183 63.2368 16.4935 63.6298 16.136C64.0289 15.7785 64.2289 15.4432 64.2289 15.1307C64.2289 14.9203 64.1406 14.757 63.9638 14.6424C63.7933 14.5212 63.5804 14.4601 63.3252 14.4601C62.6704 14.4601 62.0874 14.6935 61.5766 15.1595L60.6435 14.0676C60.9767 13.7107 61.391 13.4382 61.8518 13.2729C62.3124 13.0962 62.8019 13.0053 63.2957 13.0049C64.075 13.0049 64.7103 13.1995 65.2011 13.5888C65.6991 13.9785 65.9476 14.4919 65.9476 15.1307C65.9476 15.6094 65.7642 16.0754 65.3978 16.5286C65.031 16.9822 64.4318 17.4894 63.6003 18.0515H65.997V19.4878ZM69.4289 19.6028C68.3161 19.6028 67.4352 19.2931 66.787 18.6737L67.7103 17.5249C68.175 17.9397 68.7414 18.1472 69.4094 18.1472C69.7501 18.1472 70.0119 18.077 70.1953 17.9368C70.385 17.7962 70.48 17.6206 70.48 17.4098C70.48 17.1863 70.3916 17.0078 70.2148 16.8737C70.0381 16.7393 69.7858 16.6725 69.4584 16.6725C68.9414 16.6725 68.509 16.8321 68.1621 17.1509L66.9932 16.8737V13.1006H71.7472V14.5368H68.6825V15.7723C69.0426 15.4342 69.5111 15.2651 70.087 15.2651C70.6634 15.2651 71.158 15.4564 71.5704 15.8391C71.9895 16.2226 72.1991 16.7236 72.1991 17.3426C72.1991 18.0321 71.9501 18.5814 71.4526 18.99C70.9547 19.3983 70.2804 19.6028 69.4289 19.6028Z" fill="#E60004"/>
</g>
<defs>
<clipPath id="clip0_1229_433">
<rect width="100" height="40" fill="white"/>
</clipPath>
</defs>
</svg>
