<svg width="118" height="40" viewBox="0 0 118 40" fill="none" xmlns="http://www.w3.org/2000/svg">
<g clip-path="url(#clip0_1229_446)">
<path fill-rule="evenodd" clip-rule="evenodd" d="M114.853 40H3.14667C1.40892 40 0 38.5672 0 36.8V3.2C0 1.4328 1.40892 0 3.14667 0H114.853C116.591 0 118 1.4328 118 3.2V36.8C118 38.5672 116.591 40 114.853 40Z" fill="#FF333A"/>
<path d="M14.1181 23.1579L13.5753 20.6835H10.6858L10.1643 23.1579H7.29688L10.6858 8.42188H13.6838L17.1601 23.1579H14.1181ZM13.141 18.4075C12.8366 16.9939 12.5329 15.6019 12.3158 14.1659C12.2285 13.5251 12.142 12.8627 12.0767 12.2219C11.9461 14.2987 11.5339 16.3531 11.1209 18.4083H13.141V18.4075Z" fill="white"/>
<path d="M24.1193 11.7599C23.5325 11.2519 22.8591 10.8103 22.0559 10.8103C21.2086 10.8103 20.6218 11.3847 20.6218 12.2463C20.6218 14.7871 24.9666 14.7431 24.9666 18.8519C24.9666 21.3927 23.4672 23.4031 20.8389 23.4031C19.9484 23.4031 19.0791 23.1599 18.3405 22.6519V19.8679C18.9918 20.3095 19.666 20.6631 20.4692 20.6631C21.447 20.6631 22.1637 20.0447 22.1637 19.0279C22.1637 18.7631 22.1204 18.5199 22.0118 18.2767C21.7514 17.7247 20.9475 17.2383 20.4692 16.9071C18.84 15.7583 17.7969 14.6975 17.7969 12.5551C17.7969 10.2351 19.1224 8.20312 21.5768 8.20312C22.5546 8.20312 23.2713 8.42392 24.1185 8.91032L24.1193 11.7599Z" fill="white"/>
<path d="M31.6881 23.1579L29.0158 15.6683V23.1579H26.1484V8.42188H29.0158V15.0059L31.427 8.42188H34.3597L31.6874 15.2267L34.6853 23.1579H31.6881Z" fill="white"/>
<path d="M44.3454 14.9639C44.3675 15.3391 44.3675 15.7151 44.3675 16.0903C44.3675 17.1287 44.3242 18.1895 44.1071 19.2055C43.6288 21.4807 42.1734 23.4031 39.719 23.4031C35.8085 23.4031 34.5703 19.1167 34.5703 15.8471C34.5703 12.4671 35.6567 8.20312 39.719 8.20312C41.9351 8.20312 43.3684 9.61673 43.9773 11.6935L41.1964 12.7983C41.0658 11.9367 40.8275 10.7655 39.7411 10.7655C37.7862 10.7655 37.6336 14.4111 37.6336 15.8031C37.6336 17.2615 37.6989 20.7519 39.7623 20.7519C41.3262 20.7519 41.5001 18.7639 41.5221 17.5703H39.697V14.9631H44.3454V14.9639Z" fill="white"/>
<path d="M51.3993 23.1579L50.8565 20.6835H47.9671L47.4455 23.1579H44.5781L47.9671 8.42188H50.9651L54.4413 23.1579H51.3993ZM50.4215 18.4075C50.117 16.9939 49.8134 15.6019 49.5963 14.1659C49.5089 13.5251 49.4224 12.8627 49.3571 12.2219C49.2265 14.2987 48.8143 16.3531 48.4013 18.4083H50.4215V18.4075Z" fill="white"/>
<path d="M65.4425 23.1579L64.7259 12.5531C64.6606 13.7019 64.4867 14.8283 64.2917 15.9555L63.0094 23.1579H60.8154L59.4686 16.4859C59.3168 15.7571 59.1642 15.0275 59.0996 14.2763L58.9258 12.5531L58.4695 23.1579H55.4062L56.6665 8.42188H60.4464L61.8585 17.1267L63.0094 8.42188H66.8766L68.3752 23.1579H65.4425Z" fill="white"/>
<path d="M72.6266 8.42188C73.3873 8.42188 74.6688 8.46588 75.6678 9.46028C76.4498 10.2339 76.8628 11.4483 76.8628 12.6419C76.8628 13.3707 76.7109 14.1003 76.1894 14.7411C75.9502 15.0283 75.5813 15.3819 75.0377 15.6027C75.9715 15.9563 76.4277 16.6187 76.6016 16.9059C77.0146 17.6131 77.1011 18.4307 77.1011 18.9827C77.1011 20.0875 76.8187 21.0819 76.0147 21.8987C74.9071 23.0251 73.451 23.1579 72.6038 23.1579H69.5625V8.42188H72.6266ZM72.4307 14.4755C72.887 14.4531 73.4085 14.2547 73.6909 13.9675C74.1039 13.5475 74.1472 12.9291 74.1472 12.5979C74.1472 12.2443 74.1039 11.6923 73.6909 11.2723C73.4518 11.0291 73.0608 10.8307 72.4307 10.8307V14.4755ZM72.4307 20.6395C72.887 20.6395 73.4085 20.4851 73.7342 20.1755C74.0386 19.8883 74.277 19.3803 74.277 18.7395C74.277 18.0323 74.0378 17.5019 73.7122 17.1931C73.3645 16.8835 72.8429 16.7291 72.4307 16.7291V20.6395Z" fill="white"/>
<path d="M78.4844 23.1579V8.42188H81.3518V20.3963H84.3498V23.1579H78.4844Z" fill="white"/>
<path d="M85.5312 23.1579V8.42188H91.2881V11.1611H88.3986V14.3427H90.9404V17.1267H88.3986V20.4403H91.3313V23.1579H85.5312Z" fill="white"/>
<path d="M98.1279 23.1579L95.5862 16.3755V23.1579H92.7188V8.42188H95.8253C96.8897 8.42188 98.0626 8.51067 98.9751 9.12907C100.127 9.90267 100.692 11.3387 100.692 12.7083C100.692 14.3875 100.04 15.5803 98.6282 16.4643L101.148 23.1587H98.1279V23.1579ZM95.5862 14.7627C95.738 14.7851 95.9118 14.7851 96.0644 14.7851C97.3027 14.7851 97.9107 13.9235 97.9107 12.7307C97.9107 11.5379 97.3892 10.7203 96.1297 10.7203H95.5869L95.5862 14.7627Z" fill="white"/>
<path d="M108.104 11.7599C107.517 11.2519 106.843 10.8103 106.04 10.8103C105.193 10.8103 104.606 11.3847 104.606 12.2463C104.606 14.7871 108.951 14.7431 108.951 18.8519C108.951 21.3927 107.452 23.4031 104.823 23.4031C103.933 23.4031 103.064 23.1599 102.325 22.6519V19.8679C102.976 20.3095 103.65 20.6631 104.454 20.6631C105.431 20.6631 106.148 20.0447 106.148 19.0279C106.148 18.7631 106.105 18.5199 105.996 18.2767C105.736 17.7247 104.932 17.2383 104.454 16.9071C102.824 15.7583 101.781 14.6975 101.781 12.5551C101.781 10.2351 103.107 8.20312 105.561 8.20312C106.539 8.20312 107.256 8.42392 108.103 8.91032L108.104 11.7599Z" fill="white"/>
<path d="M111.168 12.3212C112.21 12.3212 113.054 11.4623 113.054 10.4028C113.054 9.34327 112.21 8.48438 111.168 8.48438C110.126 8.48438 109.281 9.34327 109.281 10.4028C109.281 11.4623 110.126 12.3212 111.168 12.3212Z" fill="white"/>
<path d="M7.125 29.287C7.125 27.3102 8.56853 25.9766 10.4266 25.9766C11.6908 25.9766 12.4838 26.6382 12.9463 27.4062L12.0118 27.9054C11.7097 27.3678 11.0961 26.9742 10.4266 26.9742C9.18135 26.9742 8.25701 27.9334 8.25701 29.287C8.25701 30.6206 9.18135 31.599 10.4266 31.599C11.0969 31.599 11.7097 31.1966 12.0118 30.6686L12.955 31.1486C12.4743 31.9158 11.6908 32.5974 10.4266 32.5974C8.56853 32.5966 7.125 31.2534 7.125 29.287Z" fill="white"/>
<path d="M13.8906 32.482V26.082H18.2023V27.07H14.9943V28.7212H18.1363V29.7092H14.9943V31.494H18.2023V32.482H13.8906Z" fill="white"/>
<path d="M22.9927 32.482L21.6058 30.0932H20.5021V32.482H19.3984V26.082H22.1628C23.4081 26.082 24.2286 26.898 24.2286 28.0868C24.2286 29.2196 23.4923 29.8428 22.7284 29.9676L24.2758 32.4812H22.9927V32.482ZM23.0966 28.078C23.0966 27.4636 22.6434 27.0708 22.0212 27.0708H20.5021V29.1044H22.0212C22.6434 29.1044 23.0966 28.702 23.0966 28.078Z" fill="white"/>
<path d="M26.7959 32.4812V27.07H24.8906V26.082H29.8065V27.07H27.9004V32.4812H26.7959Z" fill="white"/>
<path d="M30.9844 32.482V26.082H32.0881V32.482H30.9844Z" fill="white"/>
<path d="M33.4844 32.482V26.082H37.7961V27.07H34.5881V28.7212H37.73V29.7092H34.5881V32.482H33.4844Z" fill="white"/>
<path d="M39.0469 32.482V26.082H40.1506V32.482H39.0469Z" fill="white"/>
<path d="M41.2812 29.287C41.2812 27.3102 42.7248 25.9766 44.5837 25.9766C45.8478 25.9766 46.64 26.6382 47.1026 27.4062L46.168 27.9046C45.8659 27.367 45.2523 26.9734 44.5829 26.9734C43.3376 26.9734 42.4125 27.9326 42.4125 29.2862C42.4125 30.6198 43.3368 31.5982 44.5829 31.5982C45.2523 31.5982 45.8659 31.1958 46.168 30.6678L47.1112 31.1478C46.6306 31.915 45.8471 32.5966 44.5829 32.5966C42.724 32.5966 41.2812 31.2534 41.2812 29.287Z" fill="white"/>
<path d="M52.6044 32.482L52.1426 31.2444H49.2556L48.7938 32.482H47.5391L50.0116 26.082H51.389L53.8607 32.482H52.6044ZM50.6983 27.2052L49.5663 30.2564H51.8303L50.6983 27.2052Z" fill="white"/>
<path d="M55.4834 32.4812V27.07H53.5781V26.082H58.494V27.07H56.5879V32.4812H55.4834Z" fill="white"/>
<path d="M59.4844 32.482V26.082H63.7961V27.07H60.5889V28.7212H63.73V29.7092H60.5889V31.494H63.7961V32.482H59.4844Z" fill="white"/>
<path d="M67.2109 29.287C67.2109 27.3774 68.5404 25.9766 70.4276 25.9766C72.3054 25.9766 73.6451 27.3774 73.6451 29.287C73.6451 31.1966 72.3054 32.5974 70.4276 32.5974C68.5404 32.5966 67.2109 31.1958 67.2109 29.287ZM72.5131 29.287C72.5131 27.963 71.6918 26.9742 70.4276 26.9742C69.154 26.9742 68.3429 27.9622 68.3429 29.287C68.3429 30.6014 69.154 31.599 70.4276 31.599C71.6918 31.599 72.5131 30.6014 72.5131 29.287Z" fill="white"/>
<path d="M74.7656 32.482V26.082H79.0766V27.07H75.8693V28.7212H79.0105V29.7092H75.8693V32.482H74.7656Z" fill="white"/>
<path d="M84.1248 32.4812V27.07H82.2188V26.082H87.1346V27.07H85.2285V32.4812H84.1248Z" fill="white"/>
<path d="M91.9068 32.482L90.5199 30.0932H89.4162V32.482H88.3125V26.082H91.0768C92.3221 26.082 93.1434 26.898 93.1434 28.0868C93.1434 29.2196 92.4071 29.8428 91.6432 29.9676L93.1906 32.4812H91.9068V32.482ZM92.0106 28.078C92.0106 27.4636 91.5575 27.0708 90.9352 27.0708H89.4162V29.1044H90.9352C91.5575 29.1044 92.0106 28.702 92.0106 28.078Z" fill="white"/>
<path d="M94.125 29.9484V26.082H95.2476V29.9196C95.2476 30.9364 95.8045 31.5988 96.8516 31.5988C97.8986 31.5988 98.4556 30.9364 98.4556 29.9196V26.082H99.5782V29.9484C99.5782 31.5316 98.6822 32.5964 96.8516 32.5964C95.0305 32.5964 94.125 31.5316 94.125 29.9484Z" fill="white"/>
<path d="M100.383 31.5806L101.006 30.7078C101.43 31.1782 102.119 31.5998 102.996 31.5998C103.902 31.5998 104.251 31.1494 104.251 30.7166C104.251 29.3734 100.59 30.2086 100.59 27.8574C100.59 26.7918 101.496 25.9766 102.884 25.9766C103.855 25.9766 104.658 26.303 105.233 26.8782L104.61 27.7126C104.109 27.2046 103.44 26.9742 102.78 26.9742C102.138 26.9742 101.723 27.3006 101.723 27.771C101.723 28.9702 105.383 28.2318 105.383 30.611C105.383 31.6766 104.638 32.5974 102.949 32.5974C101.789 32.5974 100.949 32.175 100.383 31.5806Z" fill="white"/>
<path d="M107.859 32.4812V27.07H105.953V26.082H110.869V27.07H108.963V32.4812H107.859Z" fill="white"/>
</g>
<defs>
<clipPath id="clip0_1229_446">
<rect width="118" height="40" fill="white"/>
</clipPath>
</defs>
</svg>
